<svg id="Layer_1" data-name="Layer 1" xmlns="http://www.w3.org/2000/svg" xmlns:xlink="http://www.w3.org/1999/xlink" viewBox="0 0 138.92 93.59"><defs><style>.cls-1{font-size:21px;fill:#662d91;font-family:AvenirNext-Regular, Avenir Next;letter-spacing:0.24em;}.cls-2{letter-spacing:0.21em;}.cls-3{fill:url(#radial-gradient);}</style><radialGradient id="radial-gradient" cx="79.03" cy="46.47" r="54.15" gradientTransform="translate(0 13.94) scale(1 0.7)" gradientUnits="userSpaceOnUse"><stop offset="0" stop-color="#ff99be"/><stop offset="1" stop-color="#ff7bac"/></radialGradient></defs><title>tabbLogo2</title><text class="cls-1" transform="translate(8.43 84.96)">PH<tspan class="cls-2" x="37.42" y="0">OT</tspan><tspan x="76.15" y="0">OS</tspan></text><path class="cls-3" d="M37.27,51.72a1.17,1.17,0,0,1,1.16,1.57S31.5,73.24,27.09,73.24c-6.61,0-8.92-12.81-8.92-28.14,0-5.46.31-11,.63-16-2.42.21-4.62.21-6.2.21H11.24c-2.73-.1-1.68-3.36.1-3.36.84,0,3.78.11,7.77.11.53-6,1.16-10.19,1.47-10.61.63-.94,2.52-1.26,4-1.26,1.78,0,4.1.74,4.1,2.42,0,.73-.42,4.2-.84,9q3.14-.16,6.29-.63h.21c1.58,0,1.37,2.52-.31,2.73-2.1.31-4.31.52-6.4.73-.42,5.57-.85,12.5-.85,18.9,0,8.71.32,20,1.69,20,2.41,0,7.76-14.91,7.76-14.91A1.1,1.1,0,0,1,37.27,51.72Z" transform="translate(-9.57 -14.23)"/><path class="cls-3" d="M74.86,51.72A1.17,1.17,0,0,1,76,53.29s-7.56,21.94-12,21.94c-6.72,0-8.82-9.13-8.82-15.11,0-1.48.1-3,.21-4.73-3.46,8-8.61,17.85-13,17.85-5.67,0-8.4-4.41-8.4-12,0-8.5,6.3-18.69,16.17-18.69,3.67,0,5.77.74,7,1.89a6.52,6.52,0,0,0,.42-1,2.76,2.76,0,0,1,2.63-1.15c2.52,0,5.77,1.36,5.46,2.73C63,57.38,64.36,69.88,65.31,69.88c2.31,0,8.5-17.43,8.5-17.43A1.1,1.1,0,0,1,74.86,51.72ZM53.23,53.81c0-2.09-.31-6.92-2.31-6.92-2.51,0-8.18,7.34-8.18,17.63,0,2.31.73,3.15,1.47,3.15C46.83,67.67,50.4,60.32,53.23,53.81Z" transform="translate(-9.57 -14.23)"/><path class="cls-3" d="M113.92,55.39A110.1,110.1,0,0,0,101,60.22C98.7,69.77,92.61,78.7,84.42,78.7c-3.57,0-4.41-2.42-4.41-4.2,0-4.94,5.46-9.45,12.07-12.92a48.94,48.94,0,0,0,1.16-10.39c0-5.77-1.16-8.61-1.68-8.61-4,0-7.77,10.19-10.08,23.63-.21,2.3-.32,3.46-.32,3.67,0,.73-.94,1.05-2,1.05-1.68,0-3.89-.74-4-1.58C71.5,46.57,75.07,15.7,76,15.07a5.09,5.09,0,0,1,3.25-.84c1.79.11,4.1.63,4.31,1.79.21.73-.84,21.21-1.58,36.75,2.31-7.46,5.78-13.86,10.61-13.86,5.46,0,9.45,5.14,9.45,12.91a30.22,30.22,0,0,1-.53,5.35c1.58-.63,10.71-4.09,12.18-4.09A1.18,1.18,0,0,1,113.92,55.39ZM91.24,65c-5.14,3-8.4,6.19-8.4,9.23,0,1.37.74,1.68,1.26,1.68C86.62,75.86,89.35,71.24,91.24,65Z" transform="translate(-9.57 -14.23)"/><path class="cls-3" d="M147.63,55.39a109.6,109.6,0,0,0-12.92,4.83c-2.31,9.55-8.4,18.48-16.59,18.48-3.57,0-4.41-2.42-4.41-4.2,0-4.94,5.46-9.45,12.08-12.92a49.59,49.59,0,0,0,1.15-10.39c0-5.77-1.15-8.61-1.68-8.61-4,0-7.77,10.19-10.08,23.63-.21,2.3-.31,3.46-.31,3.67,0,.73-1,1.05-2,1.05-1.68,0-3.88-.74-4-1.58-3.67-22.78-.1-53.65.84-54.28a5.12,5.12,0,0,1,3.26-.84c1.78.11,4.09.63,4.3,1.79.21.73-.84,21.21-1.57,36.75,2.31-7.46,5.77-13.86,10.6-13.86,5.46,0,9.45,5.14,9.45,12.91a31.17,31.17,0,0,1-.52,5.35c1.57-.63,10.71-4.09,12.18-4.09A1.18,1.18,0,0,1,147.63,55.39ZM125,65c-5.15,3-8.4,6.19-8.4,9.23,0,1.37.73,1.68,1.26,1.68C120.33,75.86,123.06,71.24,125,65Z" transform="translate(-9.57 -14.23)"/></svg>